<svg width="168" height="39" viewBox="0 0 168 39" fill="none" xmlns="http://www.w3.org/2000/svg">
<g id="logo">
<path d="M9.10293 25.968C6.03264 25.968 3.74192 24.8531 2.23076 22.6231C0.743586 20.3932 0 17.1801 0 12.984C0 8.78789 0.743586 5.57485 2.23076 3.34491C3.74192 1.11497 6.03264 0 9.10293 0C10.2543 0 11.2497 0.155856 12.0893 0.467569C12.9288 0.779281 13.6484 1.19889 14.2481 1.72641C14.8477 2.25392 15.3515 2.85337 15.7592 3.52475C16.167 4.17215 16.5268 4.83154 16.8386 5.50292L14.2481 6.68982C14.0322 6.13833 13.7803 5.62281 13.4925 5.14325C13.2046 4.63972 12.8568 4.20812 12.4491 3.84845C12.0653 3.4648 11.5975 3.16508 11.0458 2.94928C10.5181 2.73348 9.8705 2.62558 9.10293 2.62558C7.11204 2.62558 5.62487 3.38088 4.64142 4.89149C3.68195 6.40209 3.20222 8.41623 3.20222 10.9339V15.0341C3.20222 17.5518 3.68195 19.5659 4.64142 21.0765C5.62487 22.5871 7.11204 23.3425 9.10293 23.3425C9.8705 23.3425 10.5181 23.2346 11.0458 23.0188C11.5975 22.8029 12.0653 22.5152 12.4491 22.1555C12.8568 21.7719 13.2046 21.3403 13.4925 20.8607C13.7803 20.3572 14.0322 19.8297 14.2481 19.2782L16.8386 20.4651C16.5268 21.1605 16.167 21.8318 15.7592 22.4792C15.3515 23.1267 14.8477 23.7141 14.2481 24.2416C13.6484 24.7691 12.9288 25.1887 12.0893 25.5005C11.2497 25.8122 10.2543 25.968 9.10293 25.968Z" fill="#003C80"/>
<path d="M25.3158 25.5364H22.2935V0.431602H31.4324C33.7591 0.431602 35.5341 1.06702 36.7575 2.33784C37.9808 3.60867 38.5924 5.38303 38.5924 7.66093C38.5924 9.69905 38.0647 11.3295 37.0093 12.5524C35.9539 13.7753 34.4188 14.4826 32.4039 14.6745L38.8083 25.5364H35.4262L29.3096 14.8183H25.3158V25.5364ZM31.3605 12.2647C32.6318 12.2647 33.6152 11.953 34.3108 11.3295C35.0304 10.6821 35.3902 9.77098 35.3902 8.59607V6.72579C35.3902 5.55088 35.0304 4.65171 34.3108 4.02828C33.6152 3.38088 32.6318 3.05718 31.3605 3.05718H25.3158V12.2647H31.3605Z" fill="#003C80"/>
<path d="M57.9356 25.5364L55.8128 18.379H46.9977L44.8749 25.5364H41.7446L49.4443 0.431602H53.4381L61.1378 25.5364H57.9356ZM51.5672 3.63265H51.2433L47.7173 15.7535H55.0932L51.5672 3.63265Z" fill="#003C80"/>
<path d="M65.4414 25.5364V0.431602H81.2725V3.05718H68.4637V11.5094H80.1932V14.135H68.4637V25.5364H65.4414Z" fill="#003C80"/>
<path d="M96.0822 3.05718V25.5364H93.0599V3.05718H84.6766V0.431602H104.466V3.05718H96.0822Z" fill="#003C80"/>
<path d="M108.589 25.5364V0.431602H124.061V3.05718H111.612V11.5094H123.629V14.135H111.612V22.9109H124.061V25.5364H108.589Z" fill="#003C80"/>
<path d="M133.185 25.5364H130.163V0.431602H139.302C141.629 0.431602 143.404 1.06702 144.627 2.33784C145.85 3.60867 146.462 5.38303 146.462 7.66093C146.462 9.69905 145.934 11.3295 144.879 12.5524C143.824 13.7753 142.288 14.4826 140.273 14.6745L146.678 25.5364H143.296L137.179 14.8183H133.185V25.5364ZM139.23 12.2647C140.501 12.2647 141.485 11.953 142.18 11.3295C142.9 10.6821 143.26 9.77098 143.26 8.59607V6.72579C143.26 5.55088 142.9 4.65171 142.18 4.02828C141.485 3.38088 140.501 3.05718 139.23 3.05718H133.185V12.2647H139.23Z" fill="#003C80"/>
<path d="M159.221 25.968C156.966 25.968 155.119 25.5604 153.68 24.7452C152.241 23.9059 151.053 22.8389 150.118 21.5441L152.313 19.7458C153.296 20.9686 154.328 21.8798 155.407 22.4792C156.51 23.0787 157.818 23.3784 159.329 23.3784C161.152 23.3784 162.543 22.9588 163.503 22.1196C164.462 21.2804 164.942 20.1054 164.942 18.5948C164.942 17.372 164.594 16.4248 163.898 15.7535C163.203 15.0581 161.991 14.5666 160.264 14.2788L157.458 13.8113C156.235 13.5955 155.203 13.2717 154.364 12.8401C153.548 12.4085 152.888 11.893 152.385 11.2936C151.881 10.6702 151.521 9.99877 151.305 9.27943C151.089 8.53612 150.981 7.76883 150.981 6.97756C150.981 4.67568 151.737 2.93729 153.248 1.76237C154.759 0.587458 156.798 0 159.365 0C161.38 0 163.071 0.33569 164.438 1.00707C165.829 1.67845 166.945 2.62558 167.784 3.84845L165.661 5.68275C164.966 4.7716 164.126 4.02828 163.143 3.45281C162.159 2.87734 160.888 2.58961 159.329 2.58961C157.626 2.58961 156.318 2.94928 155.407 3.66861C154.496 4.38795 154.04 5.46695 154.04 6.90563C154.04 8.03259 154.376 8.95573 155.047 9.67507C155.743 10.3704 156.978 10.874 158.753 11.1857L161.452 11.6532C162.675 11.869 163.706 12.1927 164.546 12.6243C165.385 13.0559 166.057 13.5715 166.561 14.1709C167.089 14.7704 167.46 15.4417 167.676 16.1851C167.892 16.9284 168 17.7077 168 18.5229C168 20.8488 167.232 22.6711 165.697 23.9899C164.186 25.3086 162.027 25.968 159.221 25.968Z" fill="#003C80"/>
<path d="M3.28817 37.5254V31.2492H7.24597V31.9055H4.04375V34.0186H6.97611V34.675H4.04375V37.5254H3.28817Z" fill="#EA4335"/>
<path d="M10.5706 37.6333C10.1868 37.6333 9.85699 37.5613 9.58115 37.4175C9.3053 37.2676 9.07743 37.0548 8.89753 36.779C8.71763 36.5033 8.5857 36.1646 8.50175 35.763C8.4178 35.3614 8.37582 34.9028 8.37582 34.3873C8.37582 33.8777 8.4178 33.4221 8.50175 33.0205C8.5857 32.6129 8.71763 32.2712 8.89753 31.9955C9.07743 31.7197 9.3053 31.5099 9.58115 31.366C9.85699 31.2162 10.1868 31.1413 10.5706 31.1413C10.9544 31.1413 11.2842 31.2162 11.56 31.366C11.8359 31.5099 12.0638 31.7197 12.2437 31.9955C12.4236 32.2712 12.5555 32.6129 12.6394 33.0205C12.7234 33.4221 12.7654 33.8777 12.7654 34.3873C12.7654 34.9028 12.7234 35.3614 12.6394 35.763C12.5555 36.1646 12.4236 36.5033 12.2437 36.779C12.0638 37.0548 11.8359 37.2676 11.56 37.4175C11.2842 37.5613 10.9544 37.6333 10.5706 37.6333ZM10.5706 36.9769C10.8225 36.9769 11.0353 36.9289 11.2092 36.833C11.3831 36.7311 11.5271 36.5902 11.641 36.4104C11.7549 36.2306 11.8359 36.0148 11.8839 35.763C11.9378 35.5052 11.9648 35.2175 11.9648 34.8998V33.8747C11.9648 33.563 11.9378 33.2783 11.8839 33.0205C11.8359 32.7628 11.7549 32.544 11.641 32.3641C11.5271 32.1843 11.3831 32.0464 11.2092 31.9505C11.0353 31.8486 10.8225 31.7976 10.5706 31.7976C10.3187 31.7976 10.1059 31.8486 9.93195 31.9505C9.75805 32.0464 9.61413 32.1843 9.50019 32.3641C9.38626 32.544 9.3023 32.7628 9.24833 33.0205C9.20036 33.2783 9.17637 33.563 9.17637 33.8747V34.8998C9.17637 35.2175 9.20036 35.5052 9.24833 35.763C9.3023 36.0148 9.38626 36.2306 9.50019 36.4104C9.61413 36.5902 9.75805 36.7311 9.93195 36.833C10.1059 36.9289 10.3187 36.9769 10.5706 36.9769Z" fill="#EA4335"/>
<path d="M14.8307 37.5254H14.0751V31.2492H16.3599C16.9415 31.2492 17.3853 31.408 17.6911 31.7257C17.9969 32.0434 18.1499 32.487 18.1499 33.0565C18.1499 33.566 18.0179 33.9736 17.7541 34.2794C17.4902 34.5851 17.1064 34.7619 16.6027 34.8099L18.2038 37.5254H17.3583L15.8292 34.8458H14.8307V37.5254ZM16.3419 34.2074C16.6597 34.2074 16.9056 34.1295 17.0795 33.9736C17.2594 33.8118 17.3493 33.584 17.3493 33.2903V32.8227C17.3493 32.529 17.2594 32.3042 17.0795 32.1483C16.9056 31.9865 16.6597 31.9055 16.3419 31.9055H14.8307V34.2074H16.3419Z" fill="#EA4335"/>
<path d="M27.1288 31.9055V37.5254H26.3732V31.9055H24.2774V31.2492H29.2247V31.9055H27.1288Z" fill="#EA4335"/>
<path d="M33.3678 34.675H30.9212V37.5254H30.1656V31.2492H30.9212V34.0186H33.3678V31.2492H34.1234V37.5254H33.3678V34.675Z" fill="#EA4335"/>
<path d="M37.538 37.6333C37.1542 37.6333 36.8244 37.5613 36.5485 37.4175C36.2727 37.2676 36.0448 37.0548 35.8649 36.779C35.685 36.5033 35.5531 36.1646 35.4692 35.763C35.3852 35.3614 35.3432 34.9028 35.3432 34.3873C35.3432 33.8777 35.3852 33.4221 35.4692 33.0205C35.5531 32.6129 35.685 32.2712 35.8649 31.9955C36.0448 31.7197 36.2727 31.5099 36.5485 31.366C36.8244 31.2162 37.1542 31.1413 37.538 31.1413C37.9218 31.1413 38.2516 31.2162 38.5275 31.366C38.8033 31.5099 39.0312 31.7197 39.2111 31.9955C39.391 32.2712 39.5229 32.6129 39.6068 33.0205C39.6908 33.4221 39.7328 33.8777 39.7328 34.3873C39.7328 34.9028 39.6908 35.3614 39.6068 35.763C39.5229 36.1646 39.391 36.5033 39.2111 36.779C39.0312 37.0548 38.8033 37.2676 38.5275 37.4175C38.2516 37.5613 37.9218 37.6333 37.538 37.6333ZM37.538 36.9769C37.7899 36.9769 38.0027 36.9289 38.1766 36.833C38.3505 36.7311 38.4945 36.5902 38.6084 36.4104C38.7223 36.2306 38.8033 36.0148 38.8513 35.763C38.9052 35.5052 38.9322 35.2175 38.9322 34.8998V33.8747C38.9322 33.563 38.9052 33.2783 38.8513 33.0205C38.8033 32.7628 38.7223 32.544 38.6084 32.3641C38.4945 32.1843 38.3505 32.0464 38.1766 31.9505C38.0027 31.8486 37.7899 31.7976 37.538 31.7976C37.2861 31.7976 37.0733 31.8486 36.8994 31.9505C36.7255 32.0464 36.5815 32.1843 36.4676 32.3641C36.3537 32.544 36.2697 32.7628 36.2157 33.0205C36.1678 33.2783 36.1438 33.563 36.1438 33.8747V34.8998C36.1438 35.2175 36.1678 35.5052 36.2157 35.763C36.2697 36.0148 36.3537 36.2306 36.4676 36.4104C36.5815 36.5902 36.7255 36.7311 36.8994 36.833C37.0733 36.9289 37.2861 36.9769 37.538 36.9769Z" fill="#EA4335"/>
<path d="M42.9135 37.6333C42.3498 37.6333 41.8881 37.5314 41.5283 37.3275C41.1685 37.1177 40.8716 36.851 40.6378 36.5273L41.1865 36.0777C41.4323 36.3834 41.6902 36.6112 41.96 36.7611C42.2359 36.9109 42.5627 36.9859 42.9405 36.9859C43.3962 36.9859 43.744 36.881 43.9839 36.6711C44.2238 36.4613 44.3437 36.1676 44.3437 35.79C44.3437 35.4842 44.2567 35.2475 44.0828 35.0796C43.9089 34.9058 43.6061 34.7829 43.1743 34.711L42.4727 34.5941C42.1669 34.5401 41.909 34.4592 41.6992 34.3513C41.4953 34.2434 41.3304 34.1145 41.2044 33.9646C41.0785 33.8088 40.9886 33.6409 40.9346 33.4611C40.8806 33.2753 40.8536 33.0835 40.8536 32.8856C40.8536 32.3102 41.0425 31.8756 41.4203 31.5818C41.7981 31.2881 42.3078 31.1413 42.9495 31.1413C43.4532 31.1413 43.876 31.2252 44.2178 31.393C44.5656 31.5609 44.8444 31.7976 45.0543 32.1034L44.5236 32.5619C44.3497 32.3342 44.1398 32.1483 43.8939 32.0045C43.6481 31.8606 43.3303 31.7887 42.9405 31.7887C42.5147 31.7887 42.1879 31.8786 41.96 32.0584C41.7321 32.2382 41.6182 32.508 41.6182 32.8677C41.6182 33.1494 41.7022 33.3802 41.8701 33.56C42.044 33.7339 42.3528 33.8597 42.7966 33.9377L43.4712 34.0546C43.777 34.1085 44.0349 34.1894 44.2447 34.2973C44.4546 34.4052 44.6225 34.5341 44.7485 34.684C44.8804 34.8338 44.9733 35.0017 45.0273 35.1875C45.0813 35.3733 45.1083 35.5682 45.1083 35.772C45.1083 36.3534 44.9164 36.809 44.5326 37.1387C44.1548 37.4684 43.6151 37.6333 42.9135 37.6333Z" fill="#EA4335"/>
<path d="M46.436 37.5254V31.2492H50.3039V31.9055H47.1916V34.0186H50.1959V34.675H47.1916V36.869H50.3039V37.5254H46.436Z" fill="#EA4335"/>
<path d="M57.223 37.5254L56.7282 31.2492H57.4029L57.6637 34.8458L57.7987 36.7431H57.8706L58.6982 32.8856H59.5437L60.3712 36.7431H60.4432L60.5781 34.8458L60.839 31.2492H61.4956L61.0009 37.5254H59.9125L59.1479 33.7758H59.0759L58.3114 37.5254H57.223Z" fill="#EA4335"/>
<path d="M65.7287 34.675H63.2821V37.5254H62.5265V31.2492H63.2821V34.0186H65.7287V31.2492H66.4843V37.5254H65.7287V34.675Z" fill="#EA4335"/>
<path d="M69.8989 37.6333C69.5151 37.6333 69.1853 37.5613 68.9094 37.4175C68.6336 37.2676 68.4057 37.0548 68.2258 36.779C68.0459 36.5033 67.914 36.1646 67.83 35.763C67.7461 35.3614 67.7041 34.9028 67.7041 34.3873C67.7041 33.8777 67.7461 33.4221 67.83 33.0205C67.914 32.6129 68.0459 32.2712 68.2258 31.9955C68.4057 31.7197 68.6336 31.5099 68.9094 31.366C69.1853 31.2162 69.5151 31.1413 69.8989 31.1413C70.2827 31.1413 70.6125 31.2162 70.8883 31.366C71.1642 31.5099 71.3921 31.7197 71.572 31.9955C71.7519 32.2712 71.8838 32.6129 71.9677 33.0205C72.0517 33.4221 72.0937 33.8777 72.0937 34.3873C72.0937 34.9028 72.0517 35.3614 71.9677 35.763C71.8838 36.1646 71.7519 36.5033 71.572 36.779C71.3921 37.0548 71.1642 37.2676 70.8883 37.4175C70.6125 37.5613 70.2827 37.6333 69.8989 37.6333ZM69.8989 36.9769C70.1507 36.9769 70.3636 36.9289 70.5375 36.833C70.7114 36.7311 70.8553 36.5902 70.9693 36.4104C71.0832 36.2306 71.1642 36.0148 71.2122 35.763C71.2661 35.5052 71.2931 35.2175 71.2931 34.8998V33.8747C71.2931 33.563 71.2661 33.2783 71.2122 33.0205C71.1642 32.7628 71.0832 32.544 70.9693 32.3641C70.8553 32.1843 70.7114 32.0464 70.5375 31.9505C70.3636 31.8486 70.1507 31.7976 69.8989 31.7976C69.647 31.7976 69.4341 31.8486 69.2602 31.9505C69.0863 32.0464 68.9424 32.1843 68.8285 32.3641C68.7145 32.544 68.6306 32.7628 68.5766 33.0205C68.5286 33.2783 68.5047 33.563 68.5047 33.8747V34.8998C68.5047 35.2175 68.5286 35.5052 68.5766 35.763C68.6306 36.0148 68.7145 36.2306 68.8285 36.4104C68.9424 36.5902 69.0863 36.7311 69.2602 36.833C69.4341 36.9289 69.647 36.9769 69.8989 36.9769Z" fill="#EA4335"/>
<path d="M80.1731 37.5254L78.3112 31.2492H79.1117L80.6768 36.7611H80.7218L82.2869 31.2492H83.0605L81.1986 37.5254H80.1731Z" fill="#EA4335"/>
<path d="M87.7074 37.5254L87.1767 35.736H84.9729L84.4422 37.5254H83.6597L85.5846 31.2492H86.583L88.508 37.5254H87.7074ZM86.1153 32.0494H86.0343L85.1528 35.0796H86.9968L86.1153 32.0494Z" fill="#EA4335"/>
<path d="M89.8537 37.5254V31.2492H90.6093V36.869H93.5866V37.5254H89.8537Z" fill="#EA4335"/>
<path d="M95.643 31.2492V35.0167C95.643 35.3224 95.652 35.5951 95.67 35.8349C95.6879 36.0747 95.7359 36.2815 95.8139 36.4553C95.8918 36.6232 96.0118 36.7521 96.1737 36.842C96.3416 36.9319 96.5724 36.9769 96.8663 36.9769C97.1601 36.9769 97.388 36.9319 97.5499 36.842C97.7178 36.7521 97.8407 36.6232 97.9187 36.4553C97.9967 36.2815 98.0446 36.0747 98.0626 35.8349C98.0806 35.5951 98.0896 35.3224 98.0896 35.0167V31.2492H98.8452V34.8368C98.8452 35.3044 98.8212 35.712 98.7732 36.0597C98.7312 36.4074 98.6383 36.6981 98.4944 36.9319C98.3565 37.1657 98.1556 37.3425 97.8917 37.4624C97.6339 37.5763 97.292 37.6333 96.8663 37.6333C96.4405 37.6333 96.0957 37.5763 95.8319 37.4624C95.574 37.3425 95.3731 37.1657 95.2292 36.9319C95.0913 36.6981 94.9983 36.4074 94.9503 36.0597C94.9084 35.712 94.8874 35.3044 94.8874 34.8368V31.2492H95.643Z" fill="#EA4335"/>
<path d="M100.371 37.5254V31.2492H104.239V31.9055H101.126V34.0186H104.131V34.675H101.126V36.869H104.239V37.5254H100.371Z" fill="#EA4335"/>
<path d="M111.823 31.2492V35.0167C111.823 35.3224 111.832 35.5951 111.85 35.8349C111.868 36.0747 111.916 36.2815 111.994 36.4553C112.072 36.6232 112.192 36.7521 112.354 36.842C112.522 36.9319 112.753 36.9769 113.047 36.9769C113.341 36.9769 113.568 36.9319 113.73 36.842C113.898 36.7521 114.021 36.6232 114.099 36.4553C114.177 36.2815 114.225 36.0747 114.243 35.8349C114.261 35.5951 114.27 35.3224 114.27 35.0167V31.2492H115.026V34.8368C115.026 35.3044 115.002 35.712 114.954 36.0597C114.912 36.4074 114.819 36.6981 114.675 36.9319C114.537 37.1657 114.336 37.3425 114.072 37.4624C113.814 37.5763 113.472 37.6333 113.047 37.6333C112.621 37.6333 112.276 37.5763 112.012 37.4624C111.754 37.3425 111.554 37.1657 111.41 36.9319C111.272 36.6981 111.179 36.4074 111.131 36.0597C111.089 35.712 111.068 35.3044 111.068 34.8368V31.2492H111.823Z" fill="#EA4335"/>
<path d="M117.208 32.2113H117.145V37.5254H116.461V31.2492H117.532L119.673 36.5093H119.735V31.2492H120.419V37.5254H119.349L117.208 32.2113Z" fill="#EA4335"/>
<path d="M121.891 37.5254V36.9229H123.456V31.8516H121.891V31.2492H125.777V31.8516H124.211V36.9229H125.777V37.5254H121.891Z" fill="#EA4335"/>
<path d="M130.945 39H129.893C129.539 39 129.278 38.9011 129.11 38.7033C128.948 38.5055 128.867 38.2507 128.867 37.939V37.6063C128.55 37.5643 128.274 37.4624 128.04 37.3006C127.812 37.1327 127.623 36.9139 127.473 36.6442C127.323 36.3684 127.212 36.0417 127.14 35.6641C127.068 35.2804 127.032 34.8548 127.032 34.3873C127.032 33.8777 127.074 33.4221 127.158 33.0205C127.242 32.6129 127.374 32.2712 127.554 31.9955C127.734 31.7197 127.962 31.5099 128.238 31.366C128.514 31.2162 128.843 31.1413 129.227 31.1413C129.611 31.1413 129.941 31.2162 130.217 31.366C130.492 31.5099 130.72 31.7197 130.9 31.9955C131.08 32.2712 131.212 32.6129 131.296 33.0205C131.38 33.4221 131.422 33.8777 131.422 34.3873C131.422 35.3284 131.275 36.0807 130.981 36.6442C130.687 37.2017 130.223 37.5224 129.587 37.6063V38.3886H130.945V39ZM129.227 36.9769C129.479 36.9769 129.692 36.9289 129.866 36.833C130.04 36.7311 130.184 36.5902 130.298 36.4104C130.412 36.2306 130.492 36.0148 130.54 35.763C130.594 35.5052 130.621 35.2175 130.621 34.8998V33.8747C130.621 33.563 130.594 33.2783 130.54 33.0205C130.492 32.7628 130.412 32.544 130.298 32.3641C130.184 32.1843 130.04 32.0464 129.866 31.9505C129.692 31.8486 129.479 31.7976 129.227 31.7976C128.975 31.7976 128.762 31.8486 128.589 31.9505C128.415 32.0464 128.271 32.1843 128.157 32.3641C128.043 32.544 127.959 32.7628 127.905 33.0205C127.857 33.2783 127.833 33.563 127.833 33.8747V34.8998C127.833 35.2175 127.857 35.5052 127.905 35.763C127.959 36.0148 128.043 36.2306 128.157 36.4104C128.271 36.5902 128.415 36.7311 128.589 36.833C128.762 36.9289 128.975 36.9769 129.227 36.9769Z" fill="#EA4335"/>
<path d="M133.397 31.2492V35.0167C133.397 35.3224 133.406 35.5951 133.424 35.8349C133.442 36.0747 133.49 36.2815 133.568 36.4553C133.646 36.6232 133.766 36.7521 133.928 36.842C134.096 36.9319 134.327 36.9769 134.621 36.9769C134.914 36.9769 135.142 36.9319 135.304 36.842C135.472 36.7521 135.595 36.6232 135.673 36.4553C135.751 36.2815 135.799 36.0747 135.817 35.8349C135.835 35.5951 135.844 35.3224 135.844 35.0167V31.2492H136.6V34.8368C136.6 35.3044 136.576 35.712 136.528 36.0597C136.486 36.4074 136.393 36.6981 136.249 36.9319C136.111 37.1657 135.91 37.3425 135.646 37.4624C135.388 37.5763 135.046 37.6333 134.621 37.6333C134.195 37.6333 133.85 37.5763 133.586 37.4624C133.328 37.3425 133.127 37.1657 132.984 36.9319C132.846 36.6981 132.753 36.4074 132.705 36.0597C132.663 35.712 132.642 35.3044 132.642 34.8368V31.2492H133.397Z" fill="#EA4335"/>
<path d="M138.125 37.5254V31.2492H141.993V31.9055H138.881V34.0186H141.885V34.675H138.881V36.869H141.993V37.5254H138.125Z" fill="#EA4335"/>
<path d="M144.175 32.2113H144.112V37.5254H143.429V31.2492H144.499L146.64 36.5093H146.703V31.2492H147.387V37.5254H146.316L144.175 32.2113Z" fill="#EA4335"/>
<path d="M148.912 37.5254V31.2492H152.78V31.9055H149.668V34.0186H152.672V34.675H149.668V36.869H152.78V37.5254H148.912Z" fill="#EA4335"/>
<path d="M156.177 37.6333C155.613 37.6333 155.151 37.5314 154.791 37.3275C154.432 37.1177 154.135 36.851 153.901 36.5273L154.45 36.0777C154.695 36.3834 154.953 36.6112 155.223 36.7611C155.499 36.9109 155.826 36.9859 156.204 36.9859C156.659 36.9859 157.007 36.881 157.247 36.6711C157.487 36.4613 157.607 36.1676 157.607 35.79C157.607 35.4842 157.52 35.2475 157.346 35.0796C157.172 34.9058 156.869 34.7829 156.437 34.711L155.736 34.5941C155.43 34.5401 155.172 34.4592 154.962 34.3513C154.758 34.2434 154.593 34.1145 154.468 33.9646C154.342 33.8088 154.252 33.6409 154.198 33.4611C154.144 33.2753 154.117 33.0835 154.117 32.8856C154.117 32.3102 154.306 31.8756 154.683 31.5818C155.061 31.2881 155.571 31.1413 156.213 31.1413C156.716 31.1413 157.139 31.2252 157.481 31.393C157.829 31.5609 158.107 31.7976 158.317 32.1034L157.787 32.5619C157.613 32.3342 157.403 32.1483 157.157 32.0045C156.911 31.8606 156.593 31.7887 156.204 31.7887C155.778 31.7887 155.451 31.8786 155.223 32.0584C154.995 32.2382 154.881 32.508 154.881 32.8677C154.881 33.1494 154.965 33.3802 155.133 33.56C155.307 33.7339 155.616 33.8597 156.06 33.9377L156.734 34.0546C157.04 34.1085 157.298 34.1894 157.508 34.2973C157.718 34.4052 157.886 34.5341 158.012 34.684C158.143 34.8338 158.236 35.0017 158.29 35.1875C158.344 35.3733 158.371 35.5682 158.371 35.772C158.371 36.3534 158.179 36.809 157.796 37.1387C157.418 37.4684 156.878 37.6333 156.177 37.6333Z" fill="#EA4335"/>
<path d="M161.57 37.6333C161.006 37.6333 160.545 37.5314 160.185 37.3275C159.825 37.1177 159.528 36.851 159.294 36.5273L159.843 36.0777C160.089 36.3834 160.347 36.6112 160.617 36.7611C160.892 36.9109 161.219 36.9859 161.597 36.9859C162.053 36.9859 162.401 36.881 162.64 36.6711C162.88 36.4613 163 36.1676 163 35.79C163 35.4842 162.913 35.2475 162.739 35.0796C162.566 34.9058 162.263 34.7829 161.831 34.711L161.129 34.5941C160.823 34.5401 160.566 34.4592 160.356 34.3513C160.152 34.2434 159.987 34.1145 159.861 33.9646C159.735 33.8088 159.645 33.6409 159.591 33.4611C159.537 33.2753 159.51 33.0835 159.51 32.8856C159.51 32.3102 159.699 31.8756 160.077 31.5818C160.455 31.2881 160.964 31.1413 161.606 31.1413C162.11 31.1413 162.533 31.2252 162.874 31.393C163.222 31.5609 163.501 31.7976 163.711 32.1034L163.18 32.5619C163.006 32.3342 162.796 32.1483 162.551 32.0045C162.305 31.8606 161.987 31.7887 161.597 31.7887C161.171 31.7887 160.844 31.8786 160.617 32.0584C160.389 32.2382 160.275 32.508 160.275 32.8677C160.275 33.1494 160.359 33.3802 160.527 33.56C160.701 33.7339 161.009 33.8597 161.453 33.9377L162.128 34.0546C162.434 34.1085 162.691 34.1894 162.901 34.2973C163.111 34.4052 163.279 34.5341 163.405 34.684C163.537 34.8338 163.63 35.0017 163.684 35.1875C163.738 35.3733 163.765 35.5682 163.765 35.772C163.765 36.3534 163.573 36.809 163.189 37.1387C162.811 37.4684 162.272 37.6333 161.57 37.6333Z" fill="#EA4335"/>
</g>
</svg>
