<svg width="30" height="30" viewBox="0 0 30 30" fill="none" xmlns="http://www.w3.org/2000/svg">
<g id="tabler-icon-shopping-cart">
<path id="Vector" d="M7.5 21.25C8.16304 21.25 8.79893 21.5134 9.26777 21.9822C9.73661 22.4511 10 23.087 10 23.75C10 24.413 9.73661 25.0489 9.26777 25.5178C8.79893 25.9866 8.16304 26.25 7.5 26.25C6.83696 26.25 6.20107 25.9866 5.73223 25.5178C5.26339 25.0489 5 24.413 5 23.75C5 23.087 5.26339 22.4511 5.73223 21.9822C6.20107 21.5134 6.83696 21.25 7.5 21.25ZM7.5 21.25H21.25M7.5 21.25V3.75H5M21.25 21.25C21.913 21.25 22.5489 21.5134 23.0178 21.9822C23.4866 22.4511 23.75 23.087 23.75 23.75C23.75 24.413 23.4866 25.0489 23.0178 25.5178C22.5489 25.9866 21.913 26.25 21.25 26.25C20.587 26.25 19.9511 25.9866 19.4822 25.5178C19.0134 25.0489 18.75 24.413 18.75 23.75C18.75 23.087 19.0134 22.4511 19.4822 21.9822C19.9511 21.5134 20.587 21.25 21.25 21.25ZM7.5 6.25L25 7.5L23.75 16.25H7.5" stroke="black" stroke-width="2" stroke-linecap="round" stroke-linejoin="round"/>
</g>
</svg>
