<svg width="28" height="28" viewBox="0 0 28 28" fill="none" xmlns="http://www.w3.org/2000/svg">
<g id="tabler-icon-zoom-exclamation">
<path id="Vector" d="M3.6 24.1998L10.4 17.3998M16.0667 3.7998C15.0248 3.7998 13.9932 4.00501 13.0307 4.40369C12.0682 4.80238 11.1936 5.38675 10.457 6.12342C9.72028 6.8601 9.13591 7.73467 8.73722 8.69718C8.33853 9.6597 8.13333 10.6913 8.13333 11.7331C8.13333 12.775 8.33853 13.8066 8.73722 14.7691C9.13591 15.7316 9.72028 16.6062 10.457 17.3429C11.1936 18.0795 12.0682 18.6639 13.0307 19.0626C13.9932 19.4613 15.0248 19.6665 16.0667 19.6665C17.1085 19.6665 18.1401 19.4613 19.1026 19.0626C20.0651 18.6639 20.9397 18.0795 21.6764 17.3429C22.4131 16.6062 22.9974 15.7316 23.3961 14.7691C23.7948 13.8066 24 12.775 24 11.7331C24 10.6913 23.7948 9.6597 23.3961 8.69718C22.9974 7.73467 22.4131 6.8601 21.6764 6.12342C20.9397 5.38675 20.0651 4.80238 19.1026 4.40369C18.1401 4.00501 17.1085 3.7998 16.0667 3.7998Z" stroke="black" stroke-width="2.26667" stroke-linecap="round" stroke-linejoin="round"/>
</g>
</svg>
